# xmcd
#
# Track frame offsets:
#	182
#	14542
#	27340
#	41022
#	54002
#	66620
#	79445
#	91267
#	105350
#	120155
#	128337
#	140505
#	154715
#	165497
#	179545
#	189932
#	202650
#	213725
#	234042
#	245250
#	256877
#	270352
#	283675
#	293697
#
# Disc length: 4075 seconds
#
# Revision: 0
# Processed by: cddbd v1.5.1PL2 Copyright (c) Steve Scherf et al.
# Submitted via: dBpowerAMP V4.0
#
DISCID=3b0fe918
DTITLE=lowell fulson - reconsider baby
DYEAR=1995
DGENRE=Blues
TTITLE0=reconsider baby
TTITLE1=lonley hours
TTITLE2=loving you
TTITLE3=trouble trouble
TTITLE4=it's a long time
TTITLE5=rollin' blues
TTITLE6=took a long time
TTITLE7=someday baby
TTITLE8=i want to make love to you
TTITLE9=rock this morning
TTITLE10=thats all right
TTITLE11=worry worry
TTITLE12=coming home
TTITLE13=have you changed your mind
TTITLE14=K C bound
TTITLE15=i'm glad you reconsidered 
TTITLE16=blue shadows
TTITLE17=i want to know
TTITLE18=so many tears
TTITLE19=why dont you write me
TTITLE20=hung down head
TTITLE21=pay day blues
TTITLE22=shed no tears
TTITLE23=trouble with the blues
EXTD=
EXTT0=
EXTT1=
EXTT2=
EXTT3=
EXTT4=
EXTT5=
EXTT6=
EXTT7=
EXTT8=
EXTT9=
EXTT10=
EXTT11=
EXTT12=
EXTT13=
EXTT14=
EXTT15=
EXTT16=
EXTT17=
EXTT18=
EXTT19=
EXTT20=
EXTT21=
EXTT22=
EXTT23=
PLAYORDER=
